<?xml version="1.0" encoding="utf-8"?>
<!-- Generator: Adobe Illustrator 28.2.0, SVG Export Plug-In . SVG Version: 6.00 Build 0)  -->
<svg version="1.1" id="Layer_1" xmlns="http://www.w3.org/2000/svg" xmlns:xlink="http://www.w3.org/1999/xlink" x="0px" y="0px"
	 viewBox="0 0 141.7 213.6" style="enable-background:new 0 0 141.7 213.6;" xml:space="preserve">
<style type="text/css">
	.st0{fill:#FFCA11;}
	.st1{fill:#19B3E8;}
	.st2{fill-rule:evenodd;clip-rule:evenodd;fill:#C32986;}
	.st3{fill:#B2247C;}
	.st4{fill:#FAB918;}
	.st5{fill:#49A7DD;}
</style>
<g>
	<path class="st0" d="M44.5,99.4c-0.3-6.9-1.2-13.8-2.6-20.6c-8.2-3.1-17.6-6-28.3-8.7c23.2,37.3,21.5,80.3-5.1,128.9
		c7.5-9.4,17.6-24,25.2-42.3C41.6,137.6,45.2,118.3,44.5,99.4z"/>
	<path class="st1" d="M71.5,79.7c1.3-11.8,0.9-23.4-0.9-34.8C47.7,34.6,24,28.5,24,28.5c41.9,64.1,20.2,122.1-0.6,155.3
		c8.3-10.1,17.4-22.7,25.5-37.1C61.6,124.1,69.2,101.6,71.5,79.7z"/>
	<path class="st2" d="M58.6,0c0,0,54.3,20.6,83.1,48.4c0,0-5,101-141.7,165.2C0,213.6,119,110.7,58.6,0z"/>
	<path class="st3" d="M0,213.6c65.2-30.7,100.5-69.7,119.5-102.1c-22.2,0.3-39.9,3.1-53.6,6.6C45.5,174.3,0,213.6,0,213.6z"/>
	<path class="st4" d="M42.7,126c-6.7,3-10.9,5.6-13.1,7.1c-1.3,20.6-8.4,42.6-21.1,65.8l0,0c7.5-9.4,17.6-24,25.2-42.3
		C37.9,146.5,40.9,136.2,42.7,126z"/>
	<path class="st5" d="M61.9,119.2c-6,1.7-11.2,3.5-15.5,5.3c-3.7,23.8-13.4,44.1-22.9,59.3l0,0c8.3-10.1,17.4-22.7,25.5-37.1
		C54.1,137.5,58.4,128.3,61.9,119.2z"/>
</g>
</svg>
